<?xml version="1.0" standalone="no"?>
<!DOCTYPE svg PUBLIC "-//W3C//DTD SVG 20010904//EN"
 "http://www.w3.org/TR/2001/REC-SVG-20010904/DTD/svg10.dtd">
<svg version="1.0" xmlns="http://www.w3.org/2000/svg"
 width="1024.000000pt" height="1024.000000pt" viewBox="0 0 1024.000000 1024.000000"
 preserveAspectRatio="xMidYMid meet">

<g transform="translate(0.000000,1024.000000) scale(0.100000,-0.100000)"
fill="#000000" stroke="none">
<path d="M3411 7184 c-159 -43 -280 -173 -311 -334 -6 -34 -10 -570 -10 -1504
0 -1575 -2 -1499 56 -1605 25 -48 89 -116 141 -151 l22 -15 -34 -100 c-19 -55
-50 -153 -70 -217 l-36 -118 -62 -41 c-81 -55 -203 -180 -246 -252 -40 -68
-75 -152 -96 -233 -15 -56 -19 -94 -45 -389 -12 -139 -24 -184 -85 -316 -41
-86 -44 -99 -34 -128 19 -53 55 -65 204 -65 197 1 350 36 520 122 354 177 577
535 551 885 l-7 88 118 157 c127 169 218 302 316 462 l62 101 1121 -1 c1099 0
1122 0 1187 20 116 36 224 139 264 252 17 51 18 124 18 1563 l0 1510 -23 55
c-46 113 -129 196 -242 242 l-55 23 -1585 2 c-1362 2 -1593 0 -1639 -13z
m1521 -876 c-2 -652 -4 -730 -17 -711 -20 29 -75 46 -106 34 -13 -5 -71 -58
-129 -117 -58 -60 -240 -246 -406 -414 -166 -168 -335 -346 -376 -397 -175
-211 -332 -491 -473 -838 -27 -66 -52 -124 -57 -129 -12 -15 -65 41 -93 98
l-25 50 0 703 0 703 528 0 c408 0 532 3 543 13 9 6 44 42 79 80 l63 67 -606
-2 -607 -3 0 681 c0 761 -1 750 68 826 20 23 60 52 87 64 l50 24 740 0 740 0
-3 -732z m1690 722 c59 -17 120 -69 151 -129 l27 -55 0 -698 0 -698 -855 0
-855 0 0 795 0 795 748 0 c484 0 760 -4 784 -10z m-1855 -1852 c-13 -473 -187
-974 -547 -1578 -92 -155 -78 -147 -170 -84 -169 116 -349 214 -472 257 -15 5
-13 15 18 89 119 284 284 568 431 744 83 98 723 754 736 754 6 0 8 -69 4 -182z
m2033 -578 c0 -451 -4 -706 -11 -739 -13 -62 -71 -131 -131 -157 -41 -18 -87
-19 -805 -22 l-763 -3 0 805 0 806 855 0 855 0 0 -690z m-1868 -235 l3 -680
-237 -3 c-131 -1 -238 0 -238 3 0 3 45 94 99 203 152 302 220 472 284 712 40
145 77 347 77 413 0 22 2 38 5 36 2 -3 6 -311 7 -684z m-1295 -791 c95 -36
206 -99 339 -192 l75 -53 -17 -27 c-9 -15 -68 -95 -131 -179 l-114 -151 -62
46 c-76 58 -196 121 -299 157 -44 16 -75 32 -73 39 2 6 21 63 41 126 20 63 48
142 61 175 14 33 29 70 34 83 10 27 10 27 146 -24z m-197 -578 c92 -34 171
-82 238 -144 l42 -39 0 -120 c0 -99 -4 -136 -25 -207 -56 -194 -158 -332 -329
-448 -59 -41 -198 -110 -205 -102 -2 2 14 23 35 46 119 129 172 259 125 302
-35 32 -61 17 -110 -64 -51 -86 -155 -194 -223 -234 -53 -31 -155 -69 -167
-62 -4 3 3 46 16 96 15 60 28 160 38 293 15 209 29 280 71 374 56 128 184 267
298 324 68 34 68 34 196 -15z"/>
<path d="M4074 6772 c-22 -8 -214 -124 -254 -154 -66 -51 -76 -109 -30 -162
45 -51 76 -54 152 -14 34 18 65 34 68 35 3 2 4 -142 2 -319 -4 -384 -1 -421
38 -460 23 -23 37 -28 75 -28 38 0 52 5 76 29 l29 29 0 479 c0 435 -2 481 -18
513 -26 52 -77 71 -138 52z"/>
<path d="M5773 6825 c-138 -37 -205 -134 -158 -225 19 -36 43 -50 90 -50 28 0
45 8 77 40 45 43 94 56 173 47 61 -6 92 -29 106 -78 11 -34 10 -48 -2 -82 -22
-62 -53 -79 -158 -87 -49 -3 -96 -12 -104 -19 -25 -20 -40 -68 -33 -106 10
-52 37 -65 134 -65 139 0 192 -38 192 -139 0 -101 -56 -152 -168 -152 -75 -1
-103 11 -142 60 -41 50 -84 66 -139 51 -49 -13 -71 -42 -71 -93 0 -73 52 -131
167 -185 54 -25 67 -27 188 -27 128 0 132 1 198 33 133 66 191 157 191 302 0
68 -4 93 -21 126 -21 38 -78 96 -119 120 -18 11 -17 13 14 39 18 15 45 48 59
73 23 39 28 60 31 137 3 83 1 94 -25 145 -32 63 -94 111 -176 135 -64 19 -233
19 -304 0z"/>
<path d="M5800 5074 c-142 -38 -232 -142 -197 -226 30 -71 117 -75 182 -8 43
44 92 57 172 45 70 -10 103 -48 103 -117 0 -61 -26 -113 -64 -127 -12 -5 -60
-13 -104 -16 -45 -4 -86 -13 -92 -20 -5 -7 -13 -33 -16 -58 -6 -40 -3 -48 19
-71 23 -23 34 -26 102 -26 87 0 132 -15 164 -56 20 -25 22 -38 19 -96 -4 -76
-19 -100 -83 -129 -81 -37 -182 -14 -257 58 -27 27 -47 36 -82 40 -40 5 -48 2
-76 -25 -51 -52 -38 -116 41 -186 152 -138 431 -136 583 4 68 63 99 136 100
235 1 104 -25 160 -100 219 l-53 41 39 40 c57 59 84 125 84 210 -1 80 -16 124
-64 179 -81 91 -266 131 -420 90z"/>
</g>
</svg>
