<?xml version="1.0" standalone="no"?>
<!DOCTYPE svg PUBLIC "-//W3C//DTD SVG 20010904//EN"
 "http://www.w3.org/TR/2001/REC-SVG-20010904/DTD/svg10.dtd">
<svg version="1.0" xmlns="http://www.w3.org/2000/svg"
 width="1024.000000pt" height="1536.000000pt" viewBox="0 0 1024.000000 1536.000000"
 preserveAspectRatio="xMidYMid meet">

<g transform="translate(0.000000,1536.000000) scale(0.100000,-0.100000)"
fill="#000000" stroke="none">
<path d="M6150 14140 c-99 -24 -151 -47 -235 -105 -297 -203 -770 -804 -1370
-1740 -219 -343 -275 -427 -360 -540 -245 -328 -270 -390 -415 -1030 -21 -93
-80 -350 -130 -570 -160 -700 -278 -1226 -390 -1740 -137 -627 -397 -1839
-430 -2005 -11 -52 -264 -1234 -374 -1745 -132 -613 -287 -1366 -321 -1560
-79 -459 -50 -717 112 -964 56 -86 215 -238 333 -318 631 -427 1744 -654 2386
-487 202 52 330 121 454 244 144 142 260 340 324 550 19 63 73 288 120 500 47
212 151 678 231 1035 80 358 170 763 200 900 49 227 132 599 170 765 39 171
259 1176 366 1675 104 484 275 1273 369 1700 232 1054 344 1596 361 1735 20
181 2 437 -45 601 -8 30 -31 164 -51 299 -135 927 -324 1856 -450 2210 -41
114 -131 282 -192 355 -170 206 -420 295 -663 235z m216 -407 c37 -12 67 -35
124 -92 135 -137 179 -259 331 -916 33 -143 69 -305 79 -360 99 -517 117 -621
149 -855 11 -80 23 -186 27 -237 l7 -92 -39 5 c-50 7 -714 154 -1129 249 -176
41 -462 106 -635 145 -388 87 -611 141 -626 149 -17 9 367 602 646 996 200
283 452 604 634 808 171 191 293 247 432 200z m-1616 -2401 c405 -97 924 -218
1570 -366 658 -151 709 -162 783 -171 73 -8 80 -22 80 -155 -1 -97 -38 -347
-54 -365 -9 -9 -169 24 -609 125 -69 16 -258 58 -420 95 -718 161 -1868 429
-1875 437 -6 6 46 225 66 278 41 112 109 205 143 197 12 -2 154 -36 316 -75z
m-328 -817 c161 -36 435 -99 608 -140 173 -41 540 -126 815 -190 275 -63 617
-142 760 -175 143 -33 303 -70 355 -82 52 -12 97 -23 99 -24 2 -2 -17 -97 -43
-211 -58 -264 -105 -478 -261 -1198 -142 -656 -243 -1119 -415 -1900 -66 -297
-157 -713 -204 -925 -46 -212 -128 -581 -182 -821 l-98 -435 -55 3 c-379 25
-865 94 -1261 179 -451 97 -1194 316 -1505 443 -54 23 -100 41 -102 41 -11 0
18 146 176 875 33 154 89 418 125 586 36 169 72 335 81 370 8 35 49 219 90
409 42 190 89 406 105 480 16 74 93 421 170 770 78 349 152 685 165 745 13 61
48 218 78 350 30 132 87 392 128 577 41 186 75 338 76 338 2 0 135 -29 295
-65z m-1392 -6257 c481 -196 1096 -361 1784 -478 296 -50 497 -71 713 -73 148
-2 172 -4 168 -17 -7 -25 -132 -597 -196 -900 -101 -479 -126 -576 -182 -705
-140 -325 -432 -450 -972 -415 -341 21 -644 81 -971 189 -417 139 -690 301
-815 484 -68 99 -91 174 -97 314 -2 69 1 159 7 205 15 104 218 1116 291 1455
l11 52 57 -26 c31 -14 122 -52 202 -85z"/>
<path d="M4580 9271 c-136 -45 -224 -149 -256 -305 -38 -179 36 -351 182 -422
47 -23 63 -26 131 -22 123 5 216 62 280 169 119 198 60 464 -121 556 -54 28
-167 40 -216 24z"/>
<path d="M5904 8956 c-23 -7 -62 -27 -87 -44 -202 -140 -234 -452 -62 -611 68
-63 124 -85 215 -85 56 0 88 6 127 23 66 29 145 112 181 188 24 52 27 69 27
168 0 104 -2 114 -32 176 -75 152 -228 229 -369 185z"/>
<path d="M4384 8216 c-76 -33 -109 -123 -102 -275 21 -429 406 -751 898 -753
256 -1 413 64 590 241 75 75 104 113 135 175 90 178 43 326 -104 326 -69 0
-110 -37 -165 -149 -88 -181 -248 -276 -461 -274 -157 1 -310 61 -421 166
-104 97 -159 228 -163 392 -2 70 -22 110 -71 142 -37 26 -89 29 -136 9z"/>
</g>
</svg>
