<?xml version="1.0" standalone="no"?>
<!DOCTYPE svg PUBLIC "-//W3C//DTD SVG 20010904//EN"
 "http://www.w3.org/TR/2001/REC-SVG-20010904/DTD/svg10.dtd">
<svg version="1.0" xmlns="http://www.w3.org/2000/svg"
 width="1024.000000pt" height="1024.000000pt" viewBox="0 0 1024.000000 1024.000000"
 preserveAspectRatio="xMidYMid meet">

<g transform="translate(0.000000,1024.000000) scale(0.100000,-0.100000)"
fill="#000000" stroke="none">
<path d="M5882 8160 c-73 -19 -469 -165 -552 -203 -39 -18 -73 -22 -270 -27
-242 -7 -316 -18 -474 -71 -124 -41 -235 -91 -341 -154 -182 -106 -257 -137
-450 -179 -233 -52 -386 -124 -515 -243 -182 -168 -269 -399 -257 -678 7 -149
23 -217 77 -330 54 -113 120 -189 215 -251 87 -57 103 -72 213 -193 160 -175
361 -262 678 -291 65 -7 120 -13 122 -14 3 -4 -100 -230 -152 -333 -35 -71
-36 -72 -83 -78 -491 -65 -783 -275 -787 -565 -1 -92 16 -126 93 -185 31 -24
61 -58 75 -85 16 -31 35 -51 67 -68 62 -33 118 -26 225 28 46 24 86 41 90 38
3 -4 2 -70 -2 -148 l-7 -141 -49 -42 c-105 -88 -195 -240 -224 -377 -23 -109
-14 -236 27 -348 48 -136 48 -132 2 -132 -58 0 -149 -26 -233 -67 -94 -46
-194 -142 -236 -228 -34 -71 -39 -159 -12 -211 20 -37 88 -69 168 -80 30 -4
76 -18 102 -31 30 -15 80 -28 135 -34 49 -6 113 -18 143 -27 94 -29 315 -22
549 16 107 18 196 32 197 32 2 0 1 -28 -3 -63 -4 -52 -2 -70 16 -104 24 -48
92 -86 181 -103 30 -5 80 -22 110 -37 49 -25 66 -28 160 -29 76 0 116 -5 145
-18 88 -38 245 -32 525 20 295 55 484 129 589 232 69 68 91 124 91 234 0 66 1
68 28 74 226 52 344 92 471 160 426 230 713 576 826 996 53 196 69 453 40 624
-21 118 -48 173 -103 202 -60 34 -91 24 -149 -46 -105 -126 -215 -226 -298
-269 -82 -42 -171 -73 -211 -73 l-22 0 24 78 c64 203 105 358 120 448 15 89
15 103 1 136 -21 49 -48 65 -136 78 -70 11 -306 2 -438 -17 -28 -3 -43 -2 -43
5 0 6 37 68 82 139 133 207 178 298 178 361 0 32 -6 62 -17 78 -30 46 -169
102 -360 145 -57 12 -103 26 -103 30 0 14 36 33 230 125 229 108 309 156 366
216 40 42 44 52 44 96 0 41 -6 57 -35 95 -44 57 -164 160 -277 238 -49 33 -88
65 -88 71 0 5 31 49 69 97 177 223 312 426 352 531 38 101 17 187 -58 228 -79
43 -169 56 -395 55 l-208 -1 0 24 c0 13 8 74 17 136 9 62 17 178 17 258 1 163
-5 184 -66 233 -48 39 -108 44 -206 17z m115 -267 c-6 -130 -24 -293 -33 -302
-2 -3 -21 10 -42 27 -71 61 -240 168 -316 201 -42 19 -76 37 -76 40 0 11 427
169 459 170 12 1 13 -22 8 -136z m-722 -139 c275 -46 546 -201 680 -389 123
-173 189 -389 188 -620 0 -153 -20 -234 -123 -500 -126 -323 -152 -425 -151
-603 1 -144 13 -219 57 -362 62 -199 143 -340 373 -650 185 -250 332 -510 397
-705 20 -60 43 -118 52 -127 21 -25 77 -23 103 3 25 25 21 66 -18 174 -41 117
-43 114 64 141 191 47 379 164 482 299 27 37 52 72 54 78 8 24 19 -3 29 -75
13 -92 4 -315 -17 -433 -34 -193 -134 -423 -249 -576 -165 -219 -445 -427
-686 -511 -80 -28 -232 -70 -236 -65 -2 2 1 30 7 63 6 32 9 94 7 137 -3 72 -6
81 -32 104 -21 18 -35 23 -55 18 -48 -12 -55 -27 -58 -139 -3 -117 -10 -142
-54 -198 l-31 -38 13 -104 c11 -94 11 -108 -5 -150 -35 -90 -131 -148 -351
-210 -202 -56 -572 -110 -600 -86 -22 19 -4 52 67 123 68 68 82 99 56 125 -44
44 -179 -37 -239 -143 -29 -52 -31 -53 -93 -65 -83 -16 -106 -8 -106 33 1 46
31 106 84 166 25 28 46 55 46 59 0 4 -7 18 -16 30 -46 66 -175 -28 -234 -172
-12 -31 -26 -56 -31 -56 -6 0 -26 7 -45 15 -33 14 -35 17 -29 47 29 138 140
246 328 318 l81 31 48 -26 c64 -35 184 -75 225 -75 62 0 94 63 56 108 -10 11
-43 28 -73 37 -129 41 -267 128 -335 210 -80 98 -132 265 -120 385 15 154 63
265 160 368 74 80 166 146 254 183 69 29 221 59 298 59 75 0 111 72 62 121
-20 20 -29 21 -143 17 -219 -8 -381 -81 -547 -247 -82 -82 -103 -110 -143
-191 -62 -127 -86 -226 -86 -354 0 -156 49 -302 141 -418 17 -21 27 -38 22
-38 -22 0 -200 96 -271 147 -237 170 -390 371 -471 621 -58 176 -77 432 -47
627 37 241 152 577 294 862 84 167 172 365 172 386 0 18 21 27 60 27 32 0 75
34 84 66 4 13 -1 30 -12 44 -19 24 -21 24 -263 25 -220 1 -252 4 -327 24 -115
31 -210 72 -281 120 -85 58 -85 63 -4 54 37 -4 145 -7 238 -7 331 2 577 69
762 208 34 26 74 61 91 80 26 29 31 32 47 20 30 -23 72 -17 91 11 23 36 11 68
-48 131 -82 86 -170 118 -202 72 -22 -31 -20 -41 11 -79 l27 -32 -57 -53
c-134 -121 -305 -176 -635 -205 -102 -9 -163 -9 -258 0 -272 26 -429 96 -528
235 -200 280 -128 744 147 952 93 71 192 111 402 164 235 59 308 87 479 184
328 187 630 246 971 190z m1270 -424 c38 -6 74 -15 78 -19 30 -30 -134 -307
-274 -465 -37 -42 -44 -46 -50 -30 -4 11 -8 38 -8 61 -2 95 -64 330 -112 426
l-19 37 157 0 c87 0 189 -5 228 -10z m-60 -1051 c89 -74 103 -94 79 -120 -20
-22 -202 -116 -375 -194 -68 -30 -124 -55 -125 -55 -5 0 43 132 100 278 31 78
56 145 56 148 0 3 7 30 16 60 l16 55 81 -57 c45 -32 114 -83 152 -115z m-326
-715 c143 -29 250 -60 269 -79 12 -11 4 -29 -43 -111 -69 -122 -187 -303 -197
-304 -13 0 -64 111 -102 218 -30 86 -66 244 -66 290 0 16 -8 16 139 -14z
m-2101 -621 c-36 -82 -96 -249 -126 -354 l-40 -134 -33 -6 c-19 -3 -52 -17
-74 -31 -65 -41 -143 -78 -164 -78 -23 0 -37 36 -27 73 3 12 26 53 51 91 25
38 45 74 45 81 0 24 -41 65 -65 65 -27 0 -96 -72 -127 -134 -19 -38 -21 -39
-34 -21 -24 32 -16 88 22 163 66 134 212 222 449 272 100 21 128 24 123 13z
m2749 -96 c9 -10 -46 -232 -88 -351 -37 -106 -57 -143 -65 -120 -11 28 -207
317 -253 373 -39 46 -50 65 -41 71 7 4 63 13 124 19 61 6 127 13 146 15 48 5
169 0 177 -7z m-2918 -1122 c18 -88 58 -210 96 -292 114 -246 353 -487 615
-618 41 -20 77 -39 80 -42 3 -3 -9 -14 -25 -26 -17 -12 -51 -41 -77 -65 -55
-51 -42 -47 -387 -108 -249 -43 -389 -55 -421 -34 -11 7 -4 20 38 64 31 32 52
64 52 77 0 33 -28 59 -65 59 -40 0 -116 -64 -146 -121 -22 -45 -41 -49 -136
-33 -50 8 -44 39 22 104 46 46 55 60 53 85 -2 22 -10 32 -30 39 -49 17 -129
-33 -189 -121 -25 -36 -35 -43 -62 -43 -56 0 -63 11 -42 66 26 68 86 128 169
170 113 56 318 82 376 49 26 -15 77 -19 105 -9 21 8 35 45 28 73 -3 12 -23 32
-45 45 -41 24 -106 103 -139 168 -45 87 -61 240 -38 350 15 69 60 158 106 209
42 46 44 44 62 -46z"/>
<path d="M4840 7308 c-114 -59 -166 -266 -102 -411 72 -163 288 -153 350 16
55 149 25 322 -67 382 -56 37 -124 42 -181 13z"/>
<path d="M3541 6957 c-38 -19 -63 -62 -69 -116 -4 -43 -1 -53 21 -75 39 -39
80 -35 127 12 61 61 64 160 5 182 -34 13 -55 12 -84 -3z"/>
<path d="M5565 5665 c-44 -24 -74 -55 -98 -100 -30 -59 -29 -192 2 -258 51
-104 136 -134 228 -77 48 29 73 86 73 167 0 83 -20 181 -43 217 -36 55 -110
78 -162 51z m88 -9 c70 -29 95 -83 104 -222 5 -81 3 -97 -16 -136 -38 -80
-136 -109 -209 -61 -13 8 -36 40 -50 71 -47 102 -29 257 38 317 14 13 76 41
98 45 1 0 17 -6 35 -14z"/>
<path d="M4932 5153 c-6 -2 -32 -35 -56 -71 -70 -107 -115 -143 -281 -225
-267 -132 -373 -237 -429 -426 -18 -61 -21 -178 -6 -230 20 -71 85 -135 162
-160 21 -7 56 -28 79 -47 49 -41 75 -49 137 -40 61 8 134 53 247 152 l93 81
93 11 c124 15 205 44 295 104 127 85 224 230 232 349 4 48 1 60 -17 78 -26 26
-65 27 -90 2 -10 -10 -26 -43 -35 -72 -28 -98 -110 -201 -201 -255 -60 -35
-185 -64 -276 -64 l-78 0 -87 -90 c-90 -93 -164 -150 -195 -150 -10 0 -26 11
-37 25 -17 21 -18 31 -11 66 5 23 23 66 39 96 29 56 29 74 2 106 -38 44 -100
-3 -153 -116 -41 -88 -54 -78 -54 41 0 102 18 144 93 225 62 65 127 108 301
198 91 46 164 92 197 122 55 50 128 156 140 202 14 56 -49 110 -104 88z"/>
<path d="M5855 4839 c-55 -66 -70 -108 -69 -194 0 -62 5 -91 23 -127 71 -147
225 -225 337 -172 52 25 67 63 62 153 -6 95 -46 183 -124 270 -68 75 -110 101
-162 101 -33 0 -45 -6 -67 -31z m151 -12 c57 -39 113 -108 156 -192 24 -47 32
-76 36 -141 5 -79 4 -81 -26 -115 -29 -33 -33 -34 -104 -34 -63 0 -79 4 -117
29 -63 41 -100 82 -129 145 -49 107 -30 246 44 314 40 37 80 35 140 -6z"/>
<path d="M6281 4105 c-41 -35 -54 -81 -46 -157 19 -168 88 -274 194 -297 58
-12 72 -8 111 34 23 24 25 34 25 113 0 67 -6 100 -24 145 -61 152 -181 228
-260 162z m142 -16 c45 -30 90 -98 116 -177 52 -152 2 -276 -101 -253 -105 24
-169 114 -188 265 -11 86 0 137 37 173 20 21 31 25 62 20 21 -2 54 -15 74 -28z"/>
<path d="M7117 4059 c-76 -40 -134 -180 -104 -251 46 -110 210 -40 253 108 36
126 -40 200 -149 143z m112 -6 c63 -51 24 -211 -63 -264 -38 -23 -103 -25
-128 -2 -22 20 -25 107 -5 156 42 98 142 154 196 110z"/>
<path d="M5263 3779 c-79 -23 -122 -170 -67 -230 19 -21 73 -25 106 -8 25 13
58 87 60 131 2 58 -11 94 -38 107 -14 6 -26 11 -27 10 -1 0 -16 -5 -34 -10z
m67 -19 c24 -24 27 -103 6 -154 -36 -87 -140 -87 -151 1 -10 85 41 160 118
172 4 0 16 -8 27 -19z"/>
</g>
</svg>
